<svg xmlns="http://www.w3.org/2000/svg" xmlns:xlink="http://www.w3.org/1999/xlink" style="background-color:#fff">
  <symbol class="bi bi-heart-fill" viewBox="0 0 300 200" id="bird_modified">
    <style id="style2">.eye-ball{fill:#f6fdc4}</style>
    <g id="bird" style="opacity:1" transform="translate(-39.5 -46.53)">
        <g style="fill:#b8e4c2">
            <path d="M48.42 78.11c0-17.45 14.14-31.58 31.59-31.58s31.59 14.14 31.59 31.58c0 17.44-14.14 31.59-31.59 31.59S48.42 95.56 48.42 78.11" id="path4"/>
            <path d="M109.19 69.88s-8.5-27.33-42.51-18.53c-34.02 8.81-20.65 91.11 45.25 84.73 40.39-3.65 48.59-24.6 48.59-24.6s-35.84-5.46-51.33-41.6" id="path6"/>
            <path d="M105.78 75.09c4.56 0 8.84 1.13 12.62 3.11l.01-.01 36.23 12.38s-13.78 30.81-41.96 38.09c-1.51.39-2.82.59-3.99.62-.96.1-1.92.16-2.9.16-15.01 0-27.17-12.17-27.17-27.17-.01-15.01 12.16-27.18 27.16-27.18" style="fill:#81ccaa"/>
        </g>
        <g id="head">
            <path d="M50.43 68.52s-8.81 2.58-10.93 4.86l9.12 9.87c-.01-.01.14-8.97 1.81-14.73" style="fill:#f69c0d"/>
            <path class="eye-ball" d="M60.53 71.68c0-6.33 5.13-11.46 11.46-11.46 6.33 0 11.46 5.13 11.46 11.46 0 6.33-5.13 11.46-11.46 11.46-6.33 0-11.46-5.13-11.46-11.46" id="path11"/>
            <path d="M64.45 71.68c0-4.16 3.38-7.53 7.54-7.53s7.53 3.37 7.53 7.53-3.37 7.53-7.53 7.53c-4.17.01-7.54-3.37-7.54-7.53" style="fill:#1f2600"/>
            <path class="eye-ball" d="M72.39 74.39c0-2.73 2.22-4.95 4.95-4.95s4.95 2.21 4.95 4.95-2.22 4.95-4.95 4.95c-2.74 0-4.95-2.21-4.95-4.95" id="path14"/>
        </g>
    </g>
  </symbol>
</svg>